<svg xmlns="http://www.w3.org/2000/svg" width="2852" height="2870" version="1">
  <path fill="#ff1818" d="M1321 2869a1433 1433 0 0 1-1004-532A1440 1440 0 0 1 1272 7c72-9 242-9 316 0 321 40 603 175 831 398 231 225 372 502 423 829 9 58 10 85 10 202 0 148-6 208-35 327a1443 1443 0 0 1-1219 1100c-36 5-235 9-277 6zm275-404c422-67 765-397 854-822 31-150 24-343-19-491a1053 1053 0 0 0-739-726 751 751 0 0 0-257-28c-113 0-134 1-179 11-139 28-243 67-358 135-120 71-261 208-328 318-88 144-133 263-162 423-15 86-12 246 6 328 31 138 55 209 107 308a869 869 0 0 0 191 257 1012 1012 0 0 0 628 295c49 4 211-1 256-8zm-192-127c-15-1-24-4-24-8l43-179 44-173-191 1-192 1-31 125-33 127a901 901 0 0 1-461-606l-6-32 119-1 120-1 26-109c33-139 54-231 54-236 0-3-65-4-156-4-131 0-156-1-156-7 0-18 46-147 70-196 26-53 81-141 104-166l11-12 110 1c60 0 111-1 113-3l31-114c15-61 30-113 33-116a879 879 0 0 1 387-99c14 0 26 2 26 4 0 5-73 302-78 318-2 8 9 8 186 8h187l30-119c17-65 32-121 34-124 6-10 123 59 184 107a934 934 0 0 1 320 505l3 17h-268l-42 167-43 172c-2 5 36 6 177 6h180v10c0 17-26 110-44 158-21 53-57 123-91 175l-25 38h-291l-5 18-35 143c-18 69-33 127-35 129-6 7-108 41-156 53-68 16-168 25-229 22zm135-749l22-3 40-164 42-171c2-8-9-8-186-8h-188l-43 170-42 174c0 5 318 7 355 2z"/>
</svg>
