<?xml version="1.0" encoding="UTF-8" standalone="no"?>
<svg
   xmlns:dc="http://purl.org/dc/elements/1.1/"
   xmlns:cc="http://creativecommons.org/ns#"
   xmlns:rdf="http://www.w3.org/1999/02/22-rdf-syntax-ns#"
   xmlns:svg="http://www.w3.org/2000/svg"
   xmlns="http://www.w3.org/2000/svg"
   xmlns:sodipodi="http://sodipodi.sourceforge.net/DTD/sodipodi-0.dtd"
   xmlns:inkscape="http://www.inkscape.org/namespaces/inkscape"
   version="1.1"
   id="Layer_1"
   x="0px"
   y="0px"
   width="261.61041"
   height="261.61041"
   viewBox="0 0 261.61042 261.61042"
   enable-background="new 0 0 624 627"
   xml:space="preserve"
   sodipodi:docname="logo.svg"
   inkscape:version="0.92.2pre0 650254f, 2017-08-06"><metadata
     id="metadata902"><rdf:RDF><cc:Work
         rdf:about=""><dc:format>image/svg+xml</dc:format><dc:type
           rdf:resource="http://purl.org/dc/dcmitype/StillImage" /><dc:title></dc:title></cc:Work></rdf:RDF></metadata><defs
     id="defs900" /><sodipodi:namedview
     pagecolor="#ffffff"
     bordercolor="#666666"
     borderopacity="1"
     objecttolerance="10"
     gridtolerance="10"
     guidetolerance="10"
     inkscape:pageopacity="0"
     inkscape:pageshadow="2"
     inkscape:window-width="1920"
     inkscape:window-height="1017"
     id="namedview898"
     showgrid="false"
     inkscape:zoom="2.5151841"
     inkscape:cx="133.55108"
     inkscape:cy="134.30378"
     inkscape:window-x="0"
     inkscape:window-y="30"
     inkscape:window-maximized="1"
     inkscape:current-layer="Layer_1" /><g
     id="g918"
     transform="matrix(0.44985425,0,0,0.44985425,-5.8708706,-15.569833)"><path
       id="path910"
       d="m 291.70948,518.90541 c 0,-0.35997 4.275,-17.73668 9.5,-38.6149 5.225,-20.87822 9.5,-38.19432 9.5,-38.4802 0,-0.74309 -56.38035,-0.64377 -70.66832,0.12448 l -11.98232,0.64429 -6.2904,26.10571 c -3.45972,14.35815 -6.60074,26.68079 -6.98006,27.38365 -0.50233,0.9308 -3.04871,-0.15574 -9.37435,-4 -33.19424,-20.17306 -58.57428,-48.24061 -75.24457,-83.21227 -7.65755,-16.06434 -15.45998,-39.91275 -15.45998,-47.254 v -2.31166 h 25.46146 25.46145 l 0.97516,-3.75 c 0.53633,-2.0625 3.27738,-13.65 6.09122,-25.75 2.81383,-12.1 6.38935,-27.2875 7.94558,-33.75 l 2.82953,-11.75 h -33.8822 c -18.63521,0 -33.8822,-0.28731 -33.8822,-0.63847 0,-1.66273 6.41313,-22.5622 8.69734,-28.34338 6.00134,-15.18899 19.12825,-38.22859 28.6405,-50.26815 1.24951,-1.58149 3.74361,-1.75 25.90182,-1.75 h 24.51917 l 6.27512,-25.13601 6.27513,-25.13601 8.09546,-3.73346 c 21.49197,-9.91167 45.74454,-15.88621 71.34546,-17.57572 5.6375,-0.37204 10.25,-0.35726 10.25,0.0328 0,0.39012 -3.825,16.38687 -8.5,35.54835 -4.675,19.16148 -8.49908,34.98776 -8.49796,35.16952 10e-4,0.18177 18.11243,0.33048 40.24736,0.33048 h 40.24532 l 6.81527,-26.4793 c 3.7484,-14.56361 6.98991,-26.65393 7.20335,-26.86738 0.21345,-0.21344 4.34777,1.75123 9.18737,4.36595 40.93993,22.11879 70.85654,55.12642 88.84389,98.02333 3.94607,9.41072 10.4554,29.80743 10.4554,32.76153 0,0.59633 -10.84037,0.81373 -28.75,0.57657 l -28.75,-0.38065 -8.71207,34.5 c -4.79164,18.975 -8.9899,35.7375 -9.32946,37.25 l -0.61738,2.75 h 38.693 38.693 l -0.70576,4.70636 c -2.7429,18.29094 -15.85978,49.98642 -28.26269,68.29364 l -5.75864,8.5 -31.44974,0.5 -31.44974,0.5 -7.55026,30.86538 -7.55026,30.86539 -7.41087,2.93712 c -9.8789,3.91527 -25.53144,8.34687 -36.58913,10.35924 -9.04797,1.64662 -44.5,3.3099 -44.5,2.08777 z"
       style="fill:#e53935;fill-opacity:1"
       inkscape:connector-curvature="0" /><path
       id="path904"
       d="m 330.73875,357.04051 c 0.83613,-1.90722 17.97073,-70.79314 17.97073,-72.24736 0,-0.27645 -18.19468,-0.50264 -40.43261,-0.50264 -37.6387,0 -40.46923,0.12093 -40.96256,1.75 -1.03844,3.42919 -17.60483,71.55219 -17.60483,72.3932 0,0.47124 18.00965,0.8568 40.02144,0.8568 h 40.02144 z"
       style="fill:#ffffff;fill-opacity:1"
       inkscape:connector-curvature="0" /></g><circle
     style="fill:none;fill-opacity:0.969697;stroke:#e53935;stroke-width:29.2;stroke-linecap:butt;stroke-linejoin:round;stroke-miterlimit:4;stroke-dasharray:none;stroke-dashoffset:0;stroke-opacity:1;paint-order:markers fill stroke"
     id="path5979"
     cx="130.80521"
     cy="130.80521"
     r="116.20521" /></svg>