<?xml version="1.0" encoding="UTF-8" standalone="no"?>
<svg
   xmlns:dc="http://purl.org/dc/elements/1.1/"
   xmlns:cc="http://creativecommons.org/ns#"
   xmlns:rdf="http://www.w3.org/1999/02/22-rdf-syntax-ns#"
   xmlns:svg="http://www.w3.org/2000/svg"
   xmlns="http://www.w3.org/2000/svg"
   viewBox="0 0 2852.3418 2870.0325"
   height="2870.0325"
   width="2852.3418"
   id="svg1237"
   version="1.1">
  <metadata
     id="metadata1243">
    <rdf:RDF>
      <cc:Work
         rdf:about="">
        <dc:format>image/svg+xml</dc:format>
        <dc:type
           rdf:resource="http://purl.org/dc/dcmitype/StillImage" />
        <dc:title></dc:title>
      </cc:Work>
    </rdf:RDF>
  </metadata>
  <defs
     id="defs1241" />
  <path
     id="path1298"
     d="M 1321.2987,2868.9256 C 1061.718,2848.3862 813.06461,2757.3528 599.84424,2604.7968 510.2508,2540.6941 385.7448,2422.6887 316.7844,2336.5158 65.073681,2021.9782 -42.723319,1623.6829 15.384181,1222.8816 53.532681,959.7486 171.21888,702.17018 344.46568,502.62493 431.55096,402.3203 478.7796,357.82195 576.57152,283.93697 780.8384,129.60679 1006.7142,39.54719 1272.2491,6.5613899 c 71.9443,-8.9372 242.0391,-8.7002 315.869,0.4401 320.8073,39.7167001 602.6157,174.5429001 831.0221,397.5875801 230.8628,225.4437 372.1284,502.41185 422.8362,829.02213 9.0562,58.3305 10.433,85.2028 10.363,202.25 -0.089,148.616 -6.4476,208.375 -34.84,327.4354 -88.8708,372.6684 -317.8518,692.6543 -638.8362,892.7313 -177.3663,110.5566 -360.7161,175.815 -580.4191,206.5846 -35.9616,5.0364 -235.5731,9.5867 -276.9454,6.3131 z m 274.3419,-404.1339 c 422.3508,-66.6032 765.5532,-396.8003 854.1713,-821.8032 31.2476,-149.8603 23.8345,-343.2076 -18.8275,-491.0545 -27.2184,-94.3262 -78.803,-208.11956 -128.7812,-284.0854 -143.8603,-218.66484 -368.1923,-381.13533 -609.727,-441.58948 -106.0144,-26.53453 -120.9532,-28.16674 -257.1411,-28.0952 -113.3867,0.0592 -133.8453,1.24272 -179.2,10.36337 -139.1169,27.97586 -242.7528,67.17007 -357.70697,135.28166 -119.98557,71.09273 -261.60549,208.3158 -328.31485,318.12157 -87.81552,144.54728 -133.1008,262.95318 -161.64896,422.65798 -15.40008,86.1515 -12.73568,246.1863 5.46312,328.1455 30.59816,137.7994 55.37536,209.2618 106.94856,308.4596 57.45344,110.5083 102.1256,170.5511 191.25968,257.0676 110.60901,107.361 214.18933,175.151 350.83582,229.6109 80.9325,32.2553 191.8505,58.427 276.9454,65.3468 48.9893,3.9838 210.8456,-1.3501 255.7237,-8.4272 z m -191.7237,-127.2783 c -15.1479,-0.92 -24.3872,-3.6032 -24.3071,-7.059 0.072,-3.0663 19.724,-83.6198 43.6731,-179.008 l 43.5438,-173.4329 -191.1652,1.2147 -191.1653,1.2149 -31.2129,124.7899 c -17.1671,68.6345 -32.2412,125.8182 -33.4978,127.0748 -3.7632,3.7633 -72.51433,-38.6202 -118.16905,-72.8485 -148.10669,-111.0387 -257.30597,-262.8961 -315.93229,-439.3496 -11.11592,-33.4566 -23.12608,-75.4921 -26.68928,-93.4121 l -6.47864,-32.5818 119.74592,-1.2399 119.74581,-1.24 25.794,-108.1419 c 33.21944,-139.2733 54.33312,-231.1978 54.33312,-236.5544 0,-2.4685 -65.1896,-4.242 -155.92717,-4.242 -130.78168,0 -155.92728,-1.0541 -155.92728,-6.5368 0,-17.8058 45.88768,-146.7198 69.74448,-195.9359 25.97944,-53.59494 80.8216,-141.24958 104.06848,-166.33334 l 11.08768,-11.96392 109.67693,0.6696 c 60.32232,0.368 111.09016,-0.7432 112.81752,-2.47072 1.72728,-1.72736 15.61984,-53.02464 30.8724,-113.99394 15.25237,-60.96933 30.22737,-113.15683 33.27757,-115.97223 8.1638,-7.53539 89.3805,-41.87992 131.7176,-55.70016 73.1686,-23.8846 189.6018,-43.90823 255.3175,-43.90823 14.1808,0 25.7834,2.06183 25.7834,4.58189 0,4.53102 -72.2836,302.02115 -77.2052,317.74539 -2.399,7.66512 8.5175,8.1452 185.1097,8.14152 l 187.6591,-0.004 30.2546,-119.03858 c 16.64,-65.47121 31.5881,-121.23824 33.2181,-123.92675 5.841,-9.63394 123.5181,58.83158 184.0296,107.06989 103.8157,82.75936 191.1452,192.41136 252.4543,316.98488 26.3963,53.6346 60.8254,148.6555 68.0424,187.7911 l 3.2188,17.4546 H 2177.023 2042.6205 l -41.3778,166.4001 c -22.7578,91.52 -42.3266,169.0181 -43.4862,172.2181 -1.6634,4.5905 35.8099,5.8182 177.5896,5.8182 h 179.6981 l -0.01,10.4727 c -0.01,16.8289 -26.3075,110.173 -44.4041,157.623 -20.1698,52.8858 -56.5656,123.276 -90.5768,175.177 l -25.1638,38.4 h -145.4882 -145.4902 l -4.6133,17.4546 c -2.5373,9.6 -18.6195,74.0072 -35.7381,143.1272 -17.1186,69.12 -32.624,127.3596 -34.4564,129.4213 -5.927,6.6686 -108.0724,40.8469 -155.951,52.1819 -67.729,16.0345 -167.9154,25.5913 -229.2363,21.8672 z m 135.2523,-748.6514 21.3514,-2.9265 40.0115,-163.4735 c 22.0062,-89.9104 41.1079,-167.1389 42.448,-171.6189 2.2927,-7.6635 -8.7018,-8.1455 -185.8052,-8.1455 h -188.2421 l -42.4716,169.8452 c -23.3593,93.4148 -42.4715,171.9602 -42.4715,174.5454 0,5.219 318.4417,6.8093 355.1795,1.7738 z"
     style="fill:#ff1818;fill-opacity:0.94117647;stroke-width:4.65454531" />
</svg>
